# xmcd
#
# Track frame offsets: 
#        150
#        37219
#        71577
#        111442
#        148805
#        186193
#        228412
#        265663
#        295371
#        329202
#
# Disc length: 4785 seconds
#
# Revision: 0
# Processed by: cddbd v1.5.2PL0 Copyright (c) Steve Scherf et al.
# Submitted via: ExactAudioCopy v1.0b3
#
DISCID=a812af0a
DTITLE=Various Artist - 50 Eye-Trance Tracks - CD 1
DYEAR=1900
DGENRE=
TTITLE0=André Visior and Kay Stone - Something For Your Mind (Giuseppe O
TTITLE0=ttaviani Rmx)
TTITLE1=GetFar - Shining Star (Chris Reece Remix)
TTITLE2=Rank 1 - Such Is Life (Feat. Shanokee)
TTITLE3=Faruk Sabanci and Aeden - Istanbul (Dereck Recay Remix)
TTITLE4=Above and Beyond - Home
TTITLE5=Bossanova - Stone Cold (Shog’s 2 Faces Rmx)
TTITLE6=Rapha and Reminder - Beyond The Clouds (Daniel Kandi's 147 Club 
TTITLE6=Mix) 
TTITLE7=Cressida - 6 AM (Kyau and Albert Remix)
TTITLE8=Nolita Feat. Ross Copperman - Jump
TTITLE9=Derek Decay  - Nebula (4 Strings Remix)
EXTD=
EXTT0=
EXTT1=
EXTT2=
EXTT3=
EXTT4=
EXTT5=
EXTT6=
EXTT7=
EXTT8=
EXTT9=
PLAYORDER=
